<svg width="88" height="103" viewBox="0 0 88 103" fill="none" xmlns="http://www.w3.org/2000/svg">
<path d="M60.0677 0.636361H87.3149V64.9318C87.3149 72.5767 85.4854 79.1925 81.8263 84.7791C78.1998 90.3331 73.1359 94.6293 66.6345 97.6676C60.1331 100.673 52.5862 102.176 43.9939 102.176C35.3362 102.176 27.7567 100.673 21.2552 97.6676C14.7538 94.6293 9.6899 90.3331 6.06348 84.7791C2.46973 79.1925 0.672852 72.5767 0.672852 64.9318V0.636361H27.92V62.5795C27.92 65.6832 28.6061 68.4602 29.9783 70.9105C31.3504 73.3281 33.2453 75.223 35.6629 76.5952C38.1132 77.9673 40.8902 78.6534 43.9939 78.6534C47.1302 78.6534 49.9072 77.9673 52.3248 76.5952C54.7425 75.223 56.6373 73.3281 58.0095 70.9105C59.3817 68.4602 60.0677 65.6832 60.0677 62.5795V0.636361Z" fill="#E3000F"/>
</svg>
